<?xml version="1.0" encoding="UTF-8"?>
<svg id="Calque_1" xmlns="http://www.w3.org/2000/svg" version="1.1" viewBox="0 0 693.06 695.14">
  <!-- Generator: Adobe Illustrator 29.2.1, SVG Export Plug-In . SVG Version: 2.1.0 Build 116)  -->
  <defs>
    <style>
      .st0 {
        fill: #3c47a4;
      }
    </style>
  </defs>
  <path d="M338.2,341.27c11.61-21.84,28.61-42.03,29.99-67.88.57-10.77-2.3-21.45-4.48-31.87l77.72,86.2,44.45-31.07-32.35-44.09-18.21-68.03c-6.02,6.78-10.9,15.41-16.9,22.09-.62.69-2.71,3.33-3.71,2.64l-14.38-27.25-2.12-1.24-23.26,36.75-23.64-122.25-79.12,133.88-8.63-39.38-74.26,98.24c-.58-1.63.92-3.42,1.13-5.62.51-5.28-.72-10.84.4-16.1l76.11-102.02c1.45-.24,2.15.97,2.97,1.89,1.94,2.18,6.78,11.05,8.25,12,.95.62,1.25.44,1.91-.37l73.47-104.28,71.64,103.51,11.23-13.89,2.28,1.5,95.57,124.93c2.17,33.76,4.91,67.77-5.05,100.63-17.33,57.19-63.55,102.64-121.29,118.35l51.16,87.2c2.38,6.12-3.4,7.9-6.49,2.74l-53-86.89c-29.35,7.01-61,8.03-90.24-.08l-51.57,86.52c-1.86,4.63-9.66,4.95-7.55-.77l50.42-87.6c-7.44-2.83-15.13-5.14-22.46-8.27-55.52-23.72-96.83-74.84-105.67-135.08-5.01-34.14,2.73-65.8,3.67-99.61.37-13.24-.34-26.54-.03-39.78-.28-1.5-8.7-6.3-10.9-8.6-9.2-9.66-14.6-32.35-13.85-45.38.19-3.3,2.07-17.58,5.72-18.25l2.9,1.37c1.48,2.42-1.23,7.49-1.69,10.32-1.71,10.59.3,21.88,3.54,32.07,2.69,8.47,6.19,14.92,13.14,20.61,1.34-7.06,5.02-14.24,5.52-21.46.21-3.12-2.04-11.51,2.73-11.56,5.7-.06,2.49,15.7,1.78,19.05-.88,4.16-3.45,9.63-3.66,13.6-.09,1.76,1.18,1.23,2.65,1.15,10.37-.56,18.36-13.93,21.72-22.54,1.15-2.93,3.02-11.92,4.5-13.51,1.4-1.5,3.42-.26,4.53.77,1.3,2.12-3.29,15.08-4.53,17.99-5.06,11.89-14.2,23.02-28.12,23.26l-2.24,114,69.36-82.5,30.98,38.75c-6.06,14.25-10.94,29.54-10.35,45.24h-90c-.32,62.14,37.42,119.83,92.49,147.13,54.82,27.17,114,26.45,167.78-2.74,52.64-28.57,86.9-83.96,86.98-144.39h-189Z"/>
  <path d="M66.7,349.52l4.52-6.39,13.47-14.24c-3.96-1.63-8.51.89-12.37.39-1.06-.14-1.31.37-1.12-1.13l17.99-24.38c-5.1,1.05-10.5,3.06-15.75,1.87l28.49-39.76c-3.93-.37-8.55.21-12.51,1.01-1.01.2-1.33.16-.98-.99l20.98-31.53c.28-.97-.15-1.48-1.1-1.1-1.99.78-4.49,2.69-6.96,3.54-1.14.39-2.84,1.75-2.43-.17l19.88-45.37,23.65,45.35c.06,1.03.07,1.46-1.12,1.11-3.25-.95-7.22-4.15-10.9-4.1l20.26,32.25c.12,1.25.06,1.23-1.14,1.15-3.01-.21-6.75-1.52-9.73-1.54-1.13,0-2.2-.48-1.88,1.14l25.48,38.28c.2,1.53-.07.97-1.1,1.11-4.58.63-8.93-.88-13.33-1.69-.98-.18-1.47-1.41-1.31.56l17.24,23.64h-14.62c-.31,0-1.31-1.93-1.12.36l16.4,18.87-1.04,1.76h-14.62l18,21.75h-12c4.27,5.96,9.85,11.04,14.23,16.89.89,1.18,2.26,2.58,2.27,4.11H62.95c3.31-7.56,10.27-13.19,14.99-19.88.31-1.7-.74-1.03-1.85-1.11-2.77-.21-5.83.62-8.34.12-1.08-.21-2.12.41-1.8-1.24l17.24-20.64h-16.5Z"/>
  <path d="M539.95,349.52l.71-2.66,15.78-17.97c-3-.56-6.34-.52-9.4-.4-.87.03-7.28,1.92-6.34-.33l17.99-24.01c-5.18.29-9.22,2.3-14.64,1.88-1.11-.09-2.17.59-1.85-1.11l26.99-39.01c-3.69-.46-7.64.36-11.44.57-.82.05-1.47,1.53-1.32-.57l20.25-31.51c.83-2.7-5.15,1.17-6.01,1.5-1.41.54-6.17,2.76-5.1-.59l21.25-43.28c1.73-.04,4.73,7.07,5.51,8.74,4.04,8.65,13.76,27.77,15.84,35.91.2.77.11,1.63-.74.74l-10.5-3.76,20.22,31.54.02,1.84c-3.56-.44-7.11-1.18-10.67-1.71-.98-.15-1.49-1.4-1.32.57l26.98,39.03c.2,1.54-.07.97-1.1,1.11-4.63.65-9.49-1.08-13.89-2.24-.53.5,4.25,7.19,4.95,8.16,4.03,5.63,8.79,10.74,13.03,16.21.02,2.41-12.32-.98-14.23.75l17.67,19.1-.8,1.53h-15.38l17.25,21.75h-12.75c3.78,6.19,11.7,12.13,15.02,18.36.48.91,1.02,1.42.73,2.64h-109.5l16.5-20.63-11.24.38c-.12-.83,0-1.48.38-2.24,2.04-3.95,9.87-10.81,13.09-14.66,1.41-1.68,2.78-3.64,3.77-5.6h-15.75Z"/>
  <path d="M102.24,548.74c22.49,27.1,50.98,50.53,80.03,70.34,6.48,4.42,18.32,9.97,23.45,14.8,2.09,1.96,2.65,3.37.84,5.87-2.9,4.01-6.95.87-10.33-.88-17.8-9.25-39.25-25.35-54.88-38.12C-45.68,448.04,3.96,160.6,219.94,64.39c2.64-1.18,11.25-5.33,13.47-4.99,4.15.63,4.63,5.58,1.68,8.13-69.08,29.3-126.87,79.32-162.78,145.47-57.46,105.86-47.35,242.64,29.93,335.73Z"/>
  <path d="M288.69,396.02c-5.62-3.5-8.74-12.81-10.44-19.18-10.02-37.67,3.18-74.75,21.84-107.05,9.29-16.08,26.43-38.11,26.87-57.17.07-2.97-1.28-5.7-.39-8.59,10.88,7.15,20.78,17.74,27.02,29.23,26.82,49.43-22.48,64.7-46.45,96.83-14.52,19.47-22.48,41.27-18.45,65.94Z"/>
  <path d="M489.7,396.02c.72,12.57-11.07,22.12-22.88,23.23-22.61,2.13-49.88-2.64-72.01,0-3.72.44-5.58,3.69-9.16,4.34-44.46-.36-92,3.54-136.32.92-27.22-1.61-43.87-18.94-41.62-46.86.13-1.66,4.61-23.59,7.48-21.38,2.51,10.54,8.22,20.38,16.5,27.38,23.41,19.79,75.11,19.08,104.66,19.84,40.39,1.03,89.94,3.81,129.62-1.57,8.17-1.11,15.85-3.64,23.72-5.9Z"/>
  <path d="M663.87,423.61c-1.39-2.47,2.94-20.73,3.49-25.06,21.42-168.66-92.05-314.32-254.88-349.43-3.37-.73-14.25-1.43-15.83-3.67-2.69-3.81.71-7.3,4.88-7.21,10.17.22,30.59,5.71,40.92,8.65,153.64,43.86,260.69,199.2,233.03,359.78-.67,3.9-2.26,15.34-4.97,17.52-1.87,1.5-5.64,1.19-6.64-.59Z"/>
  <path d="M369.96,567.28c1.45-1.34,4.3-3.67,6.15-3.97,2.64-.42,15.43-.39,17.25.66,2.47,1.43,10.29,9.19,12.35,11.65.88,1.05,2.91,3.24,2.95,4.51.14,4.34-12,9.63-14.21,13.51.56.72,1.25,1.24,1.99,1.75,3.53,2.44,17.96,10.3,21.59,10.66,9.63.95,19.35-1.66,28.91-.42-6.34,10.68-17.29,18.06-29.71,19.79-17.48,2.43-63.6,2.7-80.82,0-13.9-2.18-25.72-11.71-27.46-26.16,10.34,3.28,20.67,7.15,31.74,6.77,1.19-.29,8.46-19.58,11.93-21.22,5.36-2.55,15.79,4.78,21.57,4.32l-38.27-21.77c-4.51-.97-8.93-.74-13.46-2.26-1.85-.62-11.82-5.63-12.76-6.74-2.26-2.63,2.43-12.3,6.34-12.41,3.77-.11,13.47,6.63,16.19,9.39,2.2,2.24,3.64,5.9,5.7,7.8,4.7,4.34,16.95,7.82,22.59,11.99,3.75.64,7.07-5.67,9.45-7.87ZM374.95,583.52l-.37-8.99-6.36,5.62c.92.84,5.97,4.16,6.73,3.37ZM394.45,585.02c.8.9,4.61-3.43,5.19-4.22.3-1.69-3.85-3.56-4.82-4.77l-.37,8.99ZM349.45,606.02h19.88c.38,0,5.87-4.9,5.62-5.24l-18.39-7.41-7.11,12.65ZM386.2,606.02h20.25l-13.06-6.81c-.45.06-1.7,3.22-2.75,4.13-1.38,1.19-3.78,1.17-4.44,2.68Z"/>
  <path d="M154.71,452.53c8.81-9.26,20.04-12.83,32.67-9.96-.28,15.21-10.68,26.33-25.83,27.68-5.19.46-17.04-2.35-16.42,5.31,3.28,1.25,6.8.42,10.23.91,11.09,1.59,16.4,6.09,20.05,16.68-3.88,1.96-8.3.6-12.89,2.08-6.5,2.08-9,9.48-16.36,3.19-4.66-3.98-5.99-11.81-5.97-17.65l-4.04-.04c-1.92,6.46-1.06,14.43-7.71,18.66-6.3,4.01-7.54-1.85-12.46-3.78-3.9-1.53-8.78-1.38-12.9-2.11-.92-.16-1.42.53-1.07-1.01,2.66-10.39,7.94-14.52,18.38-16.13,2.68-.41,11.96,1.17,8.93-3.84-2.01-3.31-11.49-1.94-15-2.25-16.58-1.47-24.96-11.84-27.39-27.74,20.59-4.65,34.14,7.19,43.53,23.98,1.88-.37,4.67-1.76,4.37-3.93-.45-3.24-6.88-11.71-8.36-16.47-4.54-14.65,1.23-25.63,10.33-36.58,10.04,9.42,16.17,22.59,11.66,36.4-1.06,3.26-8.73,16.17-8.22,17.85l3.69,2.42c4.34-3.81,6.86-9.56,10.76-13.66Z"/>
  <path d="M181.82,573.77c-3.49-1.04,3.01-9.95,4.12-11.63l-2.88-2.11,6.62-9.9c.63-1.48-2.1-1.59-2.99-1.86l5.99-10.88c.68-1.94-2.98-.45-2.88-2.84.1-2.69,6.55-11.08,7.32-14.48.08-.34.1-.69.07-1.04-10.41-.61,1.46-11.34,2.93-15.46.65-1.83-2.8-1.08-2.98-2.24l6.78-16.02c-.21-.23-3.34.1-2.88-1.78l9.28-14.74c1.74,1.91,10.68,14.23,9.38,15.73l-3.77,1.16,7.5,16.06c-.33.47-3.7.21-2.96,1.9l8.16,12.78-4.42,2.24-.76,1.46c.46,3.05,8.28,13.03,6.69,15.34l-2.92,1.19c1.62,2.93,5.12,6.73,5.87,9.95.63,2.72-2.45,1.63-2.06,3.48l6.65,9.88c.54,2.21-2.33-.16-2.25,2.23.11,3.32,5.54,6.8,4.46,10.77-.61.02-1.53.84-1.8.84h-25.88l-.75-82.12-1.86-1.89c-1.86-.05-1.03,23.3-1.1,25.91-.05,1.77-.77,3.41-.81,5.19-.37,17.62.34,35.29.03,52.91h-25.88Z"/>
  <path d="M553.46,489.02l1.82.8,16.17,26.2-23.65-.78c-11.44,1.25-22.99,1.4-34.46,2.29-17.55,1.35-35.26,5.52-52.88,2.99l17.62-26.23c.82.01,2.62,4.77,3.21,5.78.36.62-.22,1.25,1.28.95l18.01-25.48,13.14,20.23,19.87-26.99,16.87,25.13c1.09.78,3.37-3.91,3.01-4.89Z"/>
  <path d="M536.94,241.51c-1.39.18-.56-1.51-.41-2.29,3.13-16.07,1.76-28.34-6.34-42.71-7.14,3.71-2.92,12.78-2.99,19.12-.04,4.02-1.07,10.47-2.01,14.49-1.21,5.19-3.45,10.12-6.62,14.38.31-5.08,1.63-10.24,1.91-15.34.39-7.15-.41-14.29-.78-21.4-4.71.8-3.98,5-5.2,7.91-4.88,11.64-14.38,22.33-21.81,5.26.18-2.23,7.15-9.09,9.24-10.34,3.3-1.95,7.63-2.08,10.56-3.69.95-.52,5.33-4.82,5.59-5.69.79-2.65-2.04-15.13-3.25-18.2-.52-1.32-3.61-7.84-5.56-6.7l-28.12,29.16-2.6-2.75.27-1.71,28.14-28.14c-4.64-3.97-9.85-7.67-15.54-9.95-9.09-3.64-13.84-5.13-21.26-12.49l-8.93-4.93c18.55,1.15,36.88,9.58,51.37,20.98,1.81-.01.95-7.63,1.14-9.35,1.11-10,7.64-22.9,17.56-10.84,7.13,8.66-10.86,17.13-13.77,24.22,5.96,5.1,11.44,10.61,16.07,16.97l24.38-23.61c2.28-4.35,3.52-9.16,6.14-13.36,4.37-6.98,9.06-10.97,15.58-3.13,9.6,11.54-12.99,15.37-19.11,19.86l-23.55,23.78c2.84,7.38,7.48,14.24,8.16,22.36.89,10.58-3.1,19.28-8.25,28.11ZM524.2,194.27c5.85.05,1.48-4.96-.75-6.75l.75,6.75Z"/>
  <path d="M624.7,447.77h-40.12c-.69,0-2.73,1.37-4.13.75v2.24c3.07-.52,17.42,1.85,17.96,4.97,1.11,6.39-24.3,5.82-28.12,5.57-9.26-.6-22.37-3.83-25.84-13.54h-35.25c-.26-1.64,2.67-3.01,3.95-3.92,5.15-3.64,10.95-6.57,16.24-10.01,7.77-5.05,21.72-16.41,29.07-19.71,2.2-.99,3.26-.17,4.53-.66,3.45-1.31,9.56-8.35,12.22-9.56.96-.44,1.63-.33,2.56-.43,9.71-1,6.29,3.12,11.72,7.12,3.49,2.57,10.25,3.19,12.68,5.32,1.87,1.64,2.12,6.55,3.87,8.88,2.1,2.79,5.6,6.24,8.29,9.71,3.43,4.44,6.9,8.85,10.36,13.26ZM532.45,439.52h16.88c3.47,0,18.74-13.3,24-14.26.81-.15,1.64-.11.77.76l-2.27,8.24,9-9.73,12,14.99h17.62c-1.44-2.24-3.01-5.7-4.84-7.53-1.35-1.34-3.63-1.91-4.21-2.73-1.3-1.84-1.83-7.22-3.71-8.85-1.39-1.2-6.55-2.01-9.21-3.54-4.18-2.39-5.15-6-9.13-8.11-1.16,0-11.96,8.04-13.81,9.46-1.22.94-3.01,3.33-3.84,3.74-1.49.73-2.07-1.52-3.49-.65l-25.75,18.22Z"/>
  <path d="M385.6,435.61l59.42.21c3.74.34,4.81,3.96,1.93,6.33-42.31.71-84.79.36-127.16.34-7.9,0-16.03.03-23.93,0-16.03-.04-38.1,1.82-53.3.05-5-.58-7.9-5.16-5.17-9.71,2-3.34,7.53-3.61,11.15-3.84,26.7-1.7,54.4.74,81.04.85,14.04.06,28.61-1.84,42.78-.85,5.66.4,10.69.95,13.25,6.62Z"/>
  <path d="M244.98,650.41c10.97,2.79,21.53,7.08,32.47,9.98,60.83,16.14,126.37,12.56,184.97-10.11,3.69-.54,6.07,3.72,4.4,6.73s-28.24,11.17-33.2,12.54c-52.27,14.36-113.04,13.65-164.99-1.84-5.44-1.62-21.42-6.34-25.31-9.18s-2.45-6.74,1.67-8.12Z"/>
  <path d="M579.96,574.03c4.98-4.92,10.4-9.99,15.12-15.25,18.16-20.23,33.08-43.34,46.07-67.17,3.64-2.64,8.03-.3,7.39,4.34s-10.7,21.03-13.79,26.01c-22.19,35.83-52.87,67.53-86.63,92.62-10.28,7.64-25.74,18.99-36.92,24.58-5.91,2.95-11.75,2.58-8.37-5.37,27.67-17.69,53.79-36.68,77.12-59.75Z"/>
  <path d="M127.89,165.46c-2.34,2.48-12.65,14.87-14.15,15.51-2.8,1.18-6.26-.71-5.47-3.95.59-2.43,10.44-13.88,12.8-16.51,43.21-47.96,107.05-86.1,170.49-99.51,3.25-.69,14.51-3.97,16.27-.99,1.02,2.52.52,5.09-2.08,6.18-69.17,13.2-129.95,48.44-177.86,99.27Z"/>
  <path d="M201.7,160.51c5.38-.32,8.73-3.33,11.64-7.49,1.78-.33.9.81,1.13,1.84,1.68,7.48.11,13.83-3.74,20.3-2.01,3.37-5.55,5.97-6.03,10.1l-5.59-11.27c-3.67-4.44-10.35-5.24-14.31-.76-2.21,2.5-1.24,4.37-2.22,6.03-.66,1.11-3.96,1.75-5.26,2.99-1.79,1.69-1.31,4.13-3.35,5.27-5.26-8.44-8.55-13.89-7.5-24.37,1.72-17.21,18.42-22.1,31.52-28.48.6-.29,4.51-3.48,3.72-.79-.52,1.75-3.05,2.89-2.99,4.89.66.63,10.42-4.55,10.64-6.98l3.6-8.76c8.64,16.16-2.63,25.4-11.24,37.49Z"/>
  <polygon points="379.44 95.27 352.83 58.53 329.21 90.02 353.21 13.52 379.44 95.27"/>
  <path d="M335.57,352.52h160.5c2.37,0,2.37,6.75,0,6.75h-161.25c-2.11,0-3.03-6.3.75-6.75Z"/>
  <path class="st0" d="M359.2,464.27c3.38-3.57,7.59-6.2,11.26-9.37,1.33-1.15,3.17-4.16,3.75-4.52,2.1-1.32,6.26.8,5.14,3.62l-17.89,12.51c6.12-.12,12.28.18,18.4.04,2.43-.06,10.9-2.69,10.86,1.84-.04,5.72-8.45,2.09-10.89,1.87-5.4-.49-11.41.36-16.88.01,1.96,1.65,4.74,4.24,6.8,5.57,3.94,2.55,14.93,5.34,6.19,10.06l-16.74-13.39v18.38c0,.81-2.37,1.43-3.27,1.17-.46-.15-1.23-1.78-1.23-1.92v-17.62c-3.6,3.3-8.19,5.67-11.93,8.69-1.05.85-6.55,8.69-8.02,2.6-1.11-4.57,4.7-5.16,7.89-7.22,2.79-1.8,5.91-4.03,8.31-6.31-5.81.52-12.74-.72-18.4-.03-2.22.27-3.61,1.66-5.95,1.58-3.41-.12-5.71-2.47-3.09-5.37,2.43-1.89,7.01.03,9.78.1,6.12.14,12.29-.16,18.41-.04-2.43-2.16-5.36-4.78-8-6.62-2.09-1.45-7-3.38-8.16-4.59-3.03-3.19.72-6.66,4.17-4.92.98.49,2.1,3.08,3.33,4.17,3.71,3.27,8.15,5.71,11.28,9.7,2.91-3.04-2.37-16.11,2.26-16.53.87-.08,2.62.44,2.62,1.17v15.38Z"/>
  <path d="M544.99,519.94c2.06-.42,6.69-.44,8.78-.12,2.93.44,16.31,8.09,10.46,9.65-1.24.33-8.02-2.59-10.49-2.87-13.56-1.53-14.61,10.65-24.7,11.2-5.84.32-11.49-5.07-15.53-4.4-5.23.87-8.66,9.81-16.71,10.39-7.79.56-9.27-5.13-14.27-5.98-6.12-1.04-11.72,2.19-17.78,1.28-5.83-.88-12.17-6.29-17.78-8.46l.71-2.24c3.11-2.13,12.95,3,16.89,3.39,7.65.76,12.77-3.03,21.05-.05,3.97,1.43,5.83,4.92,10.44,4.59,7.96-.56,8.5-11.7,20.83-9.61,3.04.51,5.78,3.11,8.48,3.52,8.47,1.29,12.08-8.76,19.62-10.29Z"/>
  <path d="M331.63,374.84c-2.58-2.49,1.49-6.58,4.66-5.85,36.05,2.47,76.26-3.17,111.82,0,7.32.65,5.96,6.79.74,7.16-12.34.88-27.71-.58-40.56-.41-16.05.21-31.87.38-47.93,0-4.49-.11-26.88.87-28.72-.9Z"/>
  <path d="M545.04,541.7c5.1-.56,11.2,2.09,14.22,6.18l-1.3,2.32c-.9.57-8.09-1.98-10.66-1.77-8.66.69-9.97,9.66-22.65,8.03-2.24-.29-4.75-1.8-7.03-2.03-9.37-.95-12.07,13.47-25.68,9.98-4-1.03-7.98-6.29-11.01-6.99-6.11-1.42-11.63,2.72-18.83.83-2.24-.59-10.33-5.52-12.41-7.09-1.52-1.15-1.99-2.89.02-3.53,4.49-1.43,9.77,3.13,14.11,3.65,8.09.97,12.18-3.74,20.68.33,5.75,2.76,7.94,8.71,15.38,4.93,4.41-2.23,5.95-7.12,11.73-8.52,7.92-1.92,11.26,2.2,16.64,1.7,5.63-.52,9.97-7.29,16.8-8.04Z"/>
  <path d="M403.25,58.64c1.57-.44,12.67,1.94,15.23,2.47,18.95,3.93,41.37,11.49,58.74,20.01,4.41,2.16,18.63,7.48,11.98,13.28-3.74,1.25-15.02-5.7-19.24-7.52-15.13-6.54-30.11-11.97-46.1-16.15-3.92-1.03-21.35-3.88-22.71-5.78-1.59-2.21-.37-5.62,2.1-6.31Z"/>
  <path d="M227.39,171.58c-2.72-2.72,3.17-10.56,5.08-12.91,10.84-13.34,29.24-23.68,45.56-28.69,3.55-1.09,13.91-3.98,17.08-3.86,3.77.14,5.67,4.46,2.07,6.51-17.76,3.58-35.95,10.41-50.09,21.91-1.8,1.46-5.71,4.78-7.18,6.32-2.26,2.37-7.59,11.41-10.08,11.62-.8-.12-1.88-.33-2.45-.9Z"/>
  <path d="M344.74,386.44l62.12-.21c4.6.49,6,6.27.75,6.82-19.34-1.97-43.58,2.5-62.32,0-4.52-.6-4.71-5.71-.55-6.62Z"/>
  <path d="M528.59,573.12c.07,6.01-5.03,2.41-8.52,2.16-9.86-.73-16.14,4.66-25.42,3.66-2.94-.32-6.03-1.86-9.08-2.16-10.02-.99-16.24,3.4-26.11-2.39-2.09-1.23-9.92-8.21-3.48-7.07,3.22.57,7.01,3.62,10.91,4.14,6,.8,12.38-1.3,18.68-.68,3.78.37,7.25,2.23,11.25,2.3,10.21.17,21.41-9.19,31.77.05Z"/>
  <path class="st0" d="M574.59,473.14c-1.41-2.43,1.86-4.53,3.82-5.28,7.17-2.76,26.53-2.73,33.31.76,9.36,4.82-6.4,8.1-10.63,8.43s-24.38-.21-26.51-3.91Z"/>
  <path d="M276.54,107.43c2.97-.34,5.17.44,4.69,3.92-.43,3.06-9.09,4.76-12.01,6.05-4.48,1.99-9.82,4.52-14.01,6.99-3.52,2.07-13.4,10.38-16.35,9.92-3.39-.54-2.36-4.14-.81-6.08,5.59-6.99,29.67-19.8,38.5-20.79Z"/>
  <path class="st0" d="M262.82,524.27c1.29.2,2.41,1.14,1.82,2.56-1.43,3.45-12.33,1.52-15.69,1.2l8.15,11.76c-.52,2.33-2.88,3.54-4.65,1.57-1.96-2.17-4.46-8.19-5.76-11.08-3.59,2.58-6.2,11.58-11.24,6.35l8.94-9.84c.38-2.12-13.88-10.51-7.79-12.26,2.48-.71,7.02,6.16,8.54,7.77.6.63.51.69,1.55.48l6.13-11.9,3.56.73c1.53,2.23-6.45,10.47-7.42,13.06.5,1.19,1.73-.38,1.87-.38,3.5,0,8.83-.5,12,0Z"/>
  <path class="st0" d="M159.32,528.77c-.58-.08-1.61-.91-2.5-.86l-.04-2.81c5.16-1.63,10.44-.59,15.67-.09-.95-2.89-9.1-10.76-6.58-13.31l1.72-.71c1.65.23,7.18,10.15,7.12,12.53,1.81-1.06,9.65-12.77,11.18-7.79,1,3.25-7.12,8.5-8.93,11.16,1.41,2.08,10.06,8.2,8.17,10.81-2.76,3.82-8.92-7.72-10.43-6.68-.76,2.24-6.76,14.49-9.71,10.43-1.55-2.14,6.27-10.41,7.44-12.69-4.14-.39-9.11.54-13.12,0Z"/>
  <path d="M523.97,609.54c-3.78,2.42-26.42,18.23-29.05,17.1l-2.64-3.3c-.25-.73.18-1.22.5-1.8,2.82-5.18,21.11-12.55,26.14-17.43,3.79-1.56,6.97,1.86,5.05,5.43Z"/>
  <path d="M186.46,604.62c1.82-.6,3.22.31,4.78,1,3.05,1.34,21.2,12.67,23.48,14.76,2.72,2.5,1.85,5.4-1.42,6.66-.89.12-1.61-.32-2.39-.59-3.2-1.1-21.45-12.44-24.14-14.87-2.23-2.01-3.69-5.86-.31-6.96Z"/>
  <path d="M430.98,386.43c9.33.68,21.57-1.49,30.54-.11,3.45.53,4.96,3.97,2.37,6.02s-27.83-.16-33.05.66c-3.94-.75-3.18-5.17.14-6.57Z"/>
  <path d="M63.59,276.88l-5.26,29.4c-1.2,2.25-4.2,1.17-6.19.58-.91-.65-.46-4.4-.34-5.62.34-3.46,3.94-21.76,5.28-23.96s4.5-1.18,6.52-.39Z"/>
  <path d="M644.01,274.66c1.14-.24,2.12-.33,3.2.21,2.29,1.16,6.64,22.23,6.4,25.9-4.02,2.74-5.94,2.17-7.55-2.24-.99-2.73-4.92-18.4-4.91-20.68.01-1.93.98-2.81,2.85-3.19Z"/>
  <path class="st0" d="M294.14,584.84l17.06,2.42-17.18,1.59c-.91.53-1.21,17.64-1.56,20.56-.14,1.11-.59,2.3-1.5,1.11l-.84-20.92c-4.16-1.15-8.62-1.08-12.83-1.79-.79-.13-2.98-.19-2.83-1.28,2.63-.14,13.96-.27,15.06-2.01,1.6-2.53.79-17.24,1.45-21.25,1.37.29,1.39,1.47,1.52,2.6.39,3.24.41,17.89,1.66,18.97Z"/>
  <path d="M646.61,419.09c-.44-.41-.49-1.08-.53-1.65-.13-1.93,2.83-18.98,3.57-20.84,1.29-3.24,4.48-3.68,6.93-1.33.49.82.44,1.72.44,2.62,0,2.47-3.45,21.07-4.54,21.79-1.17.78-4.81.4-5.87-.59Z"/>
  <path d="M55.28,395.45c.8.83,4.52,20.92,4.42,22.62-.18,3.05-5.97,4.19-7.63-.28-1.06-2.86-4.15-19.81-3-21.77.96-1.63,4.89-1.93,6.21-.56Z"/>
  <path d="M188.96,211.52c2.5-7.99,6.78-16.24,4.13-24.76-.98-3.14-5.08-6.34-1.92-9.39,4.5-4.33,7.93,7.97,8.27,11.29,1,9.8-2.74,17.11-10.48,22.87Z"/>
  <path d="M378.21,547.03c7.24-7.16,18.55,5.5,9.12,11.75-7.83,5.18-15.63-5.32-9.12-11.75Z"/>
  <path d="M582.11,164.42c2.56-1.54,3.94-2.62,6.64-.57,1.17.89,8.8,11.12,9.3,12.45,1.65,4.47-2.56,7.6-6.38,4.12-1.04-.95-8.69-10.8-9.14-11.84-.48-1.13-1.03-3.09-.41-4.16Z"/>
  <path class="st0" d="M352.45,539.27l7.77.11,1.28,3.19c-2.71,2.37-5.98.47-9.04.45,3.3,11.72-6.86,11.82-3.76,0-3.21.19-5.82,1.47-8.98-.04l.84-3.61,8.88-.11c-1.68-3.4-2.89-9.64,2.69-7.57,2.33,1.95.08,5.05.31,7.57Z"/>
  <path d="M621.47,215.79c-1.54,1.8-3.93,2.32-5.79.62-.7-.64-7.46-12.27-7.75-13.31-1.16-4.14,3.44-6.83,6.91-3.09,1.27,1.37,6.87,11.3,7.28,13.01.27,1.12.09,1.91-.66,2.78Z"/>
  <path d="M651.7,339.39c1.54-2.68,7.5-2.18,7.5.75v15.75c0,2.45-7.5,2.45-7.5,0v-16.5Z"/>
  <path d="M92.74,198.9c2.42-.71,4.76.66,5.34,3.1-1.75,2.82-6.44,14.07-8.9,15.17-1.66.74-5.95-1.18-5.86-2.88.12-2.17,7.47-14.82,9.42-15.4Z"/>
  <path d="M53.95,357.77c-4.36,1.18-7.03,1.88-7.54-3.33s-1.96-18.22,6.3-15.3l1.24,1v17.62Z"/>
  <path d="M637.64,265.32c-.88-.87-4.78-12.15-4.77-13.71.01-2.64,3.77-4.17,6.09-2.98,1.36.69,6.43,13.65,4.56,15.83-1.45,1.25-4.36,2.37-5.88.87Z"/>
  <path d="M78.47,224.39c2.46-.76,5.63,1.1,5.2,3.64-.19,1.12-5.06,11.82-5.68,12.4-1.69,1.56-5.31,1.46-6.45-.4-1.3-2.13,4.45-14.87,6.93-15.64Z"/>
  <path class="st0" d="M452.2,106.51l-6.76,3.37-2.98,6.38c-.59-3.66-2.06-5.97-5.01-8.12-1.58-1.15-4.49-1.02-4-3.12,1.85.13,5.41-1.92,6.51-3.24,1.51-1.81,1.38-5.16,3.23-6.51-.24,2.52,1.33,5.31,3.02,7.11,2.16,2.31,4.19,2.04,5.99,4.12Z"/>
  <path d="M658.34,367.62c1.72,1.06,2.3,23.24-6.66,16.04-1.79-1.81-.08-15.87,1.27-16.17l5.4.13Z"/>
  <path d="M61.58,265.4c-.97-1.57,2.65-13.55,3.97-14.9,1.81-1.86,7.09-1.14,6.95,2.52-.04.92-3.39,10.69-3.99,11.69-1.65,2.74-5.77,2.58-6.94.69Z"/>
  <path d="M53.09,368.38c.43,4.5,4.91,18.18-3.11,16.99-4.81-.71-3.38-12.17-3.43-15.87l1.12-1.12h5.42Z"/>
  <path d="M625.25,224.38c3.61-.7,7.63,8.34,8.51,11.52,1.16,4.23-4.05,6.28-6.45,4.12-.47-.42-4.62-9.03-4.92-10.13-.72-2.64-.23-4.92,2.86-5.51Z"/>
  <path d="M651.49,311.43c3.25-.73,4.34-.33,5.12,2.79.74,2.92,2.51,12.36-.94,13.39-8.52,2.54-5.08-8.69-7-13.72l.75-1.51c.63-.43,1.32-.78,2.06-.94Z"/>
  <path class="st0" d="M479.2,120.78l-.48,1.49c-4.49.59-7.87,5.35-7.77,9.75-2.24-1.71-1.67-4.93-3.73-7.14-1.4-1.5-3.98-2.53-6.02-2.62-.34-1.95.27-1.16,1.07-1.56,5.82-2.96,5.92-3.05,8.31-9.68.99,4.59,3.46,9.23,8.62,9.76Z"/>
  <path class="st0" d="M430.45,132.03l-.49,1.49c-5.03.59-7.05,5.44-8.14,9.76-1.08-5.56-3.77-8.28-8.62-10.89,6.01-1.49,6.55-5.07,8.63-10.12,1.2,4.27,3.44,9.64,8.62,9.75Z"/>
  <path class="st0" d="M419.95,97.51c-6.08.3-7.53,4.89-9.37,9.77-.77-5.38-3.65-8.32-8.62-10.13,5.29-2.2,8.17-4.92,8.62-10.87,1.63,2.23,1.46,4.85,3.37,7.13,2.01,2.39,4.33,1.95,6,4.11Z"/>
  <path d="M546.49,126.15c4.36-1.27,16.94,9.76,8.47,12.33-2.2.67-10.66-5.95-11.15-7.75s.96-4.08,2.69-4.58Z"/>
  <path d="M529.97,111.24c2.11,2.58-.26,6.56-3.02,6.38-1.66-.1-9.99-4.92-9.54-7.69,1.61-6.49,10.03-1.78,12.55,1.31Z"/>
  <path d="M49.93,318.13c.94-.32,4.11-.33,5.05,0,2.35.81,2.07,10.13-.8,10.99-9.08,2.72-6.59-10.19-4.25-10.99Z"/>
  <path d="M245.75,354.15c7.05-1.46,8.49,7.96,3.41,9.46-7.84,2.32-9.23-8.25-3.41-9.46Z"/>
  <path class="st0" d="M425.73,459.93c8.15-2.41,9.38,8.24,2.66,9.48-6.35,1.17-7.36-8.09-2.66-9.48Z"/>
  <path class="st0" d="M288.51,453.96c4.37,4.15-2.61,11.77-7.34,6.96-4.97-5.05,3.21-10.88,7.34-6.96Z"/>
  <path class="st0" d="M586.27,484.7c5.11,5.09-7.19,10.06-10.22,3.79l.26-2.47c1.26-2.56,8.18-3.1,9.96-1.32Z"/>
  <path d="M468.49,369.17c6.95-2.04,9.39,6.66,3.23,8.54-6.42,1.96-8.24-7.07-3.23-8.54Z"/>
  <path d="M457.99,435.18c8.36-1.87,7.96,9.75,0,7.94-4.54-1.03-4.25-6.99,0-7.94Z"/>
  <path class="st0" d="M305,39.13c6.05-1.6,6.16,7.66,1.3,8.15-5.48.55-5.23-7.11-1.3-8.15Z"/>
  <path class="st0" d="M268.23,49.75c3.95,3.16-2.05,9.9-5.6,6.33-3.11-3.12,1.13-9.9,5.6-6.33Z"/>
  <path class="st0" d="M289.27,50.09c-3.05,3.07-9.29-1.21-5.89-5.51,3.13-3.96,9.85,1.53,5.89,5.51Z"/>
  <path class="st0" d="M464.39,632.84c-3.33-3.28,3.1-9.68,6.49-4.59,2.53,3.79-3.49,7.54-6.49,4.59Z"/>
  <path class="st0" d="M244.98,627.14c5.08-1.56,7.11,5.64,2.49,7.08-4.9,1.53-6.94-5.72-2.49-7.08Z"/>
</svg>